Coordinates
version=1
nRows=21
nColumns=33
inDegrees=yes

Units are S.I. units (second, meters, Newtons, ...)
Angles are in degrees.

endheader
time	ground_thorax_rot_x	ground_thorax_rot_y	ground_thorax_rot_z	ground_thorax_tx	ground_thorax_ty	ground_thorax_tz	clav_prot_r	clav_elev_r	scapula_abduction_r	scapula_elevation_r	scapula_upward_rot_r	scapula_winging_r	shoulder_elv_r	plane_of_elev_r	axial_rot_r	elbow_flexion_r	pro_sup_r	wrist_flex_r	wrist_dev_r	clav_prot_l	clav_elev_l	scapula_abduction_l	scapula_elevation_l	scapula_upward_rot_l	scapula_winging_l	shoulder_elv_l	plane_of_elev_l	axial_rot_l	elbow_flexion_l	pro_sup_l	wrist_flex_l	wrist_dev_l
      4.74000000	    -39.44397246	     -6.25186852	      8.82413133	    -81.37892564	    844.93661349	    -39.40517894	     22.66700227	    -45.00000000	     34.47708452	    -45.00000000	    -45.00000000	  -2255.55744468	  -2444.83520000	     24.52741823	    179.99999979	   1443.36145209	    187.08811527	     15.53699396	     14.19743189	      3.06940896	     29.04407673	    -29.28119837	    -45.00000000	    -45.00000000	  -2082.87199974	  -1342.58698998	     18.96476388	   -179.99999979	   3238.68435150	    179.22526453	     10.30596186	    -16.94775916
      4.75000000	    -39.41840489	     -5.95522662	      8.53305413	    -82.16707546	    846.96687010	    -39.41321228	     22.53500520	    -45.00000000	     34.51036600	    -45.00000000	    -44.35269793	  -2255.66984842	  -2444.78127859	     24.48375830	    179.99999979	   1443.41767325	    186.04348421	     15.53663081	     14.27256878	      2.95712314	     29.13173129	    -29.39869474	    -45.00000000	    -45.00000000	  -2082.78919031	  -1342.52479606	     19.15385508	   -179.99999979	   3238.66523061	    179.07333262	     10.17665017	    -17.06975928
      4.76000000	    -39.44988008	     -6.02721674	      8.47682016	    -82.90407022	    848.96788237	    -39.42210838	     22.48419159	    -45.00000000	     34.59322263	    -45.00000000	    -44.60114177	  -2255.77919933	  -2444.78538269	     24.57727826	    179.99999979	   1443.27714609	    184.91962471	     15.47044381	     14.41481627	      3.01583127	     29.13842979	    -29.39805049	    -45.00000000	    -45.00000000	  -2082.64580649	  -1342.43640395	     19.01708526	   -179.99999979	   3238.41252338	    178.82536104	     10.13820460	    -17.16767292
      4.77000000	    -39.45850102	     -5.69790565	      8.10361780	    -83.59271150	    850.93495056	    -39.42976381	     22.38249397	    -45.00000000	     34.54875654	    -45.00000000	    -43.92690132	  -2255.89799625	  -2444.77896266	     24.61946642	    179.99999979	   1443.32200565	    183.95485525	     15.50050579	     14.50217228	      2.91329956	     29.20344083	    -29.49137414	    -45.00000000	    -45.00000000	  -2082.53373010	  -1342.31713655	     19.31083551	   -179.99999979	   3238.42814759	    178.65183796	      9.99454211	    -17.27750156
      4.78000000	    -39.45617338	     -5.43775833	      7.81801474	    -84.23569452	    852.86150566	    -39.43389381	     22.28726099	    -45.00000000	     34.55213579	    -45.00000000	    -43.58619157	  -2256.01944919	  -2444.74780461	     24.68441380	    179.99999979	   1443.27448039	    183.02448051	     15.48043270	     14.59386540	      3.00681439	     29.23457281	    -29.55930804	    -45.00000000	    -45.00000000	  -2082.48915392	  -1342.15653905	     19.39929381	   -179.99999979	   3238.26253922	    178.41851751	      9.86077066	    -17.36395408
      4.79000000	    -39.46928639	     -5.34194941	      7.65652979	    -84.83501399	    854.73927329	    -39.43202355	     22.19815200	    -45.00000000	     34.56910733	    -45.00000000	    -43.45180345	  -2256.13534272	  -2444.73081768	     24.73567658	    179.99999979	   1443.20520657	    182.08878055	     15.48930937	     14.67325995	      2.98700239	     29.26683735	    -29.60399022	    -45.00000000	    -45.00000000	  -2082.37648371	  -1342.05245789	     19.46223867	   -179.99999979	   3238.13550578	    178.18241102	      9.76618794	    -17.46484609
      4.80000000	    -39.48616550	     -5.17556422	      7.41255929	    -85.39285352	    856.56152911	    -39.42195813	     22.12994505	    -45.00000000	     34.58161172	    -45.00000000	    -43.17281715	  -2256.23788127	  -2444.73523992	     24.79035027	    179.99999979	   1443.14010728	    181.19076367	     15.52268703	     14.73642902	      2.98202845	     29.30801547	    -29.64947897	    -45.00000000	    -45.00000000	  -2082.29138874	  -1341.92927866	     19.55228781	   -179.99999979	   3238.02888972	    177.97525810	      9.63143826	    -17.55368027
      4.81000000	    -39.49765436	     -4.98919737	      7.17188699	    -85.91025251	    858.32051659	    -39.40171734	     22.03033947	    -45.00000000	     34.63304829	    -45.00000000	    -42.88295179	  -2256.32990982	  -2444.73389241	     24.81033589	    179.99999979	   1443.09300373	    180.33722704	     15.54996362	     14.78776694	      2.99874827	     29.32938305	    -29.71313697	    -45.00000000	    -45.00000000	  -2082.23823005	  -1341.81662609	     19.60443538	   -179.99999979	   3237.88578042	    177.78708398	      9.48645129	    -17.64749413
      4.82000000	    -39.51370840	     -4.80693873	      6.92186972	    -86.38642149	    860.00549693	    -39.36989788	     21.94280876	    -45.00000000	     34.65441949	    -45.00000000	    -42.60791225	  -2256.41256313	  -2444.74158341	     24.84129478	    179.99999979	   1443.03426958	    179.54069825	     15.61038596	     14.82467893	      3.00650122	     29.35805442	    -29.76790508	    -45.00000000	    -45.00000000	  -2082.17952572	  -1341.69131040	     19.68199121	   -179.99999979	   3237.75220776	    177.63791476	      9.32759869	    -17.74088301
      4.83000000	    -39.54149761	     -4.62794116	      6.66185594	    -86.82080077	    861.60931227	    -39.32605882	     21.85735535	    -45.00000000	     34.68060258	    -45.00000000	    -42.35374318	  -2256.49091497	  -2444.76493605	     24.88782846	    179.99999979	   1442.95846962	    178.81177753	     15.69091895	     14.85680678	      3.01686937	     29.38070880	    -29.81217493	    -45.00000000	    -45.00000000	  -2082.12449268	  -1341.55964638	     19.76072704	   -179.99999979	   3237.60976543	    177.54964006	      9.15880162	    -17.83645945
      4.84000000	    -39.55779497	     -4.44731018	      6.42879142	    -87.21101399	    863.12097805	    -39.27089089	     21.77395733	    -45.00000000	     34.67128106	    -45.00000000	    -42.07554252	  -2256.56337309	  -2444.76983884	     24.91696642	    179.99999979	   1442.89165489	    178.15846526	     15.78708467	     14.86598563	      3.02634046	     29.40259152	    -29.85054534	    -45.00000000	    -45.00000000	  -2082.10074310	  -1341.42695801	     19.84690215	   -179.99999979	   3237.49790509	    177.54365423	      8.96183288	    -17.92363932
      4.85000000	    -39.60522674	     -4.19337606	      6.06230539	    -87.55447540	    864.52984464	    -39.20658284	     21.69590748	    -45.00000000	     34.71988860	    -45.00000000	    -41.86631036	  -2256.62057156	  -2444.84355290	     24.98805335	    179.99999979	   1442.79187724	    177.60809316	     15.92805576	     14.89847979	      3.03397758	     29.42707030	    -29.89176874	    -45.00000000	    -45.00000000	  -2082.07723954	  -1341.21246029	     20.00418374	   -179.99999979	   3237.39565803	    177.63409188	      8.74865537	    -18.01269568
      4.86000000	    -39.69035046	     -4.02765299	      5.77830625	    -87.84896960	    865.82689209	    -39.13634575	     21.56402017	    -45.00000000	     34.90053351	    -45.00000000	    -41.74244557	  -2256.61741820	  -2444.96149792	     24.97131887	    179.99999979	   1442.70606279	    177.16702120	     16.03150322	     14.96514689	      3.04840820	     29.43868394	    -29.93303127	    -45.00000000	    -45.00000000	  -2082.04211116	  -1341.13108320	     19.96464818	   -179.99999979	   3237.14542768	    177.82316991	      8.53613262	    -18.14696701
      4.87000000	    -39.67628685	     -3.93739746	      5.65574985	    -88.09345942	    867.00615340	    -39.06438432	     21.52891213	    -45.00000000	     34.81198110	    -45.00000000	    -41.51953809	  -2256.67078901	  -2444.91321033	     25.07167157	    179.99999979	   1442.77216248	    176.79656040	     16.14009120	     14.92250760	      3.04982409	     29.42728094	    -29.89743350	    -45.00000000	    -45.00000000	  -2081.94771884	  -1341.01791089	     20.07261568	   -179.99999979	   3236.84809444	    178.12302638	      8.27042698	    -18.30649607
      4.88000000	    -39.64715120	     -3.81886939	      5.51981070	    -88.28508252	    868.05048412	    -38.99592577	     21.40595485	    -45.00000000	     34.97805238	    -45.00000000	    -41.43717632	  -2256.70868530	  -2444.91276467	     24.86618874	    179.99999979	   1442.43265544	    176.53069872	     16.31750671	     14.99538956	      3.03967025	     29.45111825	    -29.98899342	    -45.00000000	    -45.00000000	  -2082.11288442	  -1340.97991857	     19.99249341	   -179.99999979	   3236.80231341	    178.60061077	      8.04432321	    -18.36797553
      4.89000000	    -39.70513828	     -3.77796936	      5.47123886	    -88.42402959	    868.95091929	    -38.93596459	     21.47769569	    -45.00000000	     34.67692708	    -45.00000000	    -41.27724835	  -2256.71879128	  -2444.90381887	     25.19716177	    179.99999979	   1442.87923011	    176.35926803	     16.35858115	     14.88148277	      3.06371514	     29.40173091	    -29.82933328	    -45.00000000	    -45.00000000	  -2081.94265533	  -1340.74167255	     20.26059517	   -179.99999979	   3236.55384302	    179.19683119	      7.73071058	    -18.51736184
      4.90000000	    -39.67574396	     -3.92133352	      5.56352606	    -88.51085484	    869.69870874	    -38.88905244	     21.34155775	    -45.00000000	     34.79828543	    -45.00000000	    -41.20684652	  -2256.68541245	  -2444.86073892	     24.87928932	    179.99999979	   1442.49360276	    176.32434610	     16.49786861	     14.95214579	      3.03316057	     29.42966844	    -29.91367511	    -45.00000000	    -45.00000000	  -2082.15305111	  -1340.85422874	     19.95186387	   -179.99999979	   3236.50743620	    180.11056012	      7.51097005	    -18.57938329
      4.91000000	    -39.75935431	     -3.66271746	      5.18444255	    -88.54608284	    870.28003799	    -38.85978609	     21.37972655	    -45.00000000	     34.84824210	    -45.00000000	    -41.32350338	  -2256.74130920	  -2445.08258714	     25.14459481	    179.99999979	   1442.40209577	    176.39367113	     16.85956863	     15.00220442	      2.97736432	     29.40467743	    -29.82216164	    -45.00000000	    -45.00000000	  -2082.05136746	  -1340.57698312	     20.31890280	   -179.99999979	   3236.35563494	    181.04339878	      7.12655162	    -18.70840585
      4.92000000	    -39.70045217	     -3.89729627	      5.49110851	    -88.53076022	    870.69173938	    -38.85123200	     21.31699721	    -45.00000000	     34.75073146	    -45.00000000	    -41.24227773	  -2256.75580102	  -2444.96570709	     24.96878389	    179.99999979	   1442.30976510	    176.67288196	     16.86347559	     14.97404217	      2.99526762	     29.39406325	    -29.80139391	    -45.00000000	    -45.00000000	  -2082.21468579	  -1340.68019678	     20.11691171	   -179.99999979	   3236.20025175	    182.44205128	      6.92275536	    -18.79595985
      4.93000000	    -39.72472851	     -3.93325108	      5.47388472	    -88.46468058	    870.92838213	    -38.86512699	     21.30261965	    -45.00000000	     34.76564223	    -45.00000000	    -41.23851222	  -2256.66839230	  -2444.94989517	     24.92385852	    179.99999979	   1442.32965368	    176.99049657	     17.20364807	     14.96623644	      2.93058398	     29.40064517	    -29.75494766	    -45.00000000	    -45.00000000	  -2082.25978200	  -1340.63243650	     20.12059126	   -179.99999979	   3236.09540672	    183.69725290	      6.45499905	    -18.87806138
      4.94000000	    -39.73390727	     -4.02660917	      5.58414533	    -88.34628214	    870.98937349	    -38.90064521	     21.28743965	    -45.00000000	     34.75589465	    -45.00000000	    -41.30196037	  -2256.70276837	  -2444.99276884	     24.92379359	    179.99999979	   1442.21221463	    177.48802690	     17.20154954	     14.96502164	      2.97398285	     29.34491656	    -29.71273662	    -45.00000000	    -45.00000000	  -2082.32371341	  -1340.58661150	     20.07630736	   -179.99999979	   3235.89777536	    185.09844659	      6.32425884	    -18.94749870
